# xmcd CD database file
#
# Track frame offsets:
#	151
#	16608
#	31975
#	49950
#	71269
#	88779
#	110399
#	132245
#	152870
#
# Disc length: 2182 seconds
#
# Revision: 0
# Processed by: cddbd v1.5.2PL0 Copyright (c) Steve Scherf et al.
# Submitted via: CDex 1.51
#
DISCID=6b088409
DTITLE=The Kate Becker Project - The Kate Becker Project
DYEAR=2008
DGENRE=Jazz
TTITLE0=Showgirl
TTITLE1=Rain
TTITLE2=Fool
TTITLE3=Sweet Darkness
TTITLE4=Litha
TTITLE5=Loverman
TTITLE6=Diver
TTITLE7=Whiskey Kiss
TTITLE8=Plenty Beautiful
EXTD=YEAR: 2008
EXTT0=
EXTT1=
EXTT2=
EXTT3=
EXTT4=
EXTT5=
EXTT6=
EXTT7=
EXTT8=
PLAYORDER=
